REM DIRINDEX 1\8,1\2\11,1\3\12,1\3\14,1\5\15,1\5\16,1\6\17,1\6\18,1\4\19,1\4\20,1\4\21,1\4\22,1\7\23,1\7\24,1\7\25,1\2\9\26,1\2\9\27,1\2\10\28,1\2\10\29,1\2\10\30,1\2\10\31,1\2\10\32,1\3\13\33,1\3\13\34,1\3\13\35
REM DIRNAME folder01,folder02,folder03,folder04,folder05,folder06,folder07,folder08,folder09,folder10,folder11,folder12,folder13,folder14,folder15,folder16,folder17,folder18,folder19,folder20,folder21,folder22,folder23,folder24,folder25,folder26,folder27,folder28,folder29,folder30,folder31,folder32,folder33,folder34,folder35
TITLE ""
FILE "144 144_—á•¶UNIT4_SET4.mp3" MP3
  TRACK 01 AUDIO
    TITLE "22:cjc123_3601"
    INDEX 01 00:00:00
  TRACK 02 AUDIO
    TITLE "0:"
    INDEX 01 00:02:57
  TRACK 03 AUDIO
    TITLE "19:cjc123_3602"
    INDEX 01 00:03:39
  TRACK 04 AUDIO
    TITLE "0:"
    INDEX 01 00:06:49
  TRACK 05 AUDIO
    TITLE "20:cjc123_3603"
    INDEX 01 00:06:73
  TRACK 06 AUDIO
    TITLE "0:"
    INDEX 01 00:09:65
  TRACK 07 AUDIO
    TITLE "21:cjc123_3604"
    INDEX 01 00:10:21
  TRACK 08 AUDIO
    TITLE "0:"
    INDEX 01 00:13:30
  TRACK 09 AUDIO
    TITLE "19:cjc123_3605"
    INDEX 01 00:14:06
  TRACK 10 AUDIO
    TITLE "0:"
    INDEX 01 00:20:04
  TRACK 11 AUDIO
    TITLE "20:cjc123_3606"
    INDEX 01 00:20:37
  TRACK 12 AUDIO
    TITLE "0:"
    INDEX 01 00:26:18
  TRACK 13 AUDIO
    TITLE "21:cjc123_3607"
    INDEX 01 00:26:46
  TRACK 14 AUDIO
    TITLE "0:"
    INDEX 01 00:32:43
  TRACK 15 AUDIO
    TITLE "19:cjc123_3608"
    INDEX 01 00:33:22
  TRACK 16 AUDIO
    TITLE "0:"
    INDEX 01 00:38:55
  TRACK 17 AUDIO
    TITLE "20:cjc123_3609"
    INDEX 01 00:39:13
  TRACK 18 AUDIO
    TITLE "0:"
    INDEX 01 00:44:28
  TRACK 19 AUDIO
    TITLE "21:cjc123_3610"
    INDEX 01 00:44:60
  TRACK 20 AUDIO
    TITLE "0:"
    INDEX 01 00:50:15
  TRACK 21 AUDIO
    TITLE "19:cjc123_3611"
    INDEX 01 00:51:11
  TRACK 22 AUDIO
    TITLE "0:"
    INDEX 01 00:54:64
  TRACK 23 AUDIO
    TITLE "20:cjc123_3612"
    INDEX 01 00:55:24
  TRACK 24 AUDIO
    TITLE "0:"
    INDEX 01 00:58:09
  TRACK 25 AUDIO
    TITLE "21:cjc123_3613"
    INDEX 01 00:58:50
  TRACK 26 AUDIO
    TITLE "0:"
    INDEX 01 01:02:30
  TRACK 27 AUDIO
    TITLE "19:cjc123_3614"
    INDEX 01 01:03:26
  TRACK 28 AUDIO
    TITLE "0:"
    INDEX 01 01:07:66
  TRACK 29 AUDIO
    TITLE "20:cjc123_3615"
    INDEX 01 01:08:15
  TRACK 30 AUDIO
    TITLE "0:"
    INDEX 01 01:12:13
  TRACK 31 AUDIO
    TITLE "21:cjc123_3616"
    INDEX 01 01:12:40
  TRACK 32 AUDIO
    TITLE "0:"
    INDEX 01 01:17:06
  TRACK 33 AUDIO
    TITLE "19:cjc123_3617"
    INDEX 01 01:18:06
  TRACK 34 AUDIO
    TITLE "0:"
    INDEX 01 01:22:15
  TRACK 35 AUDIO
    TITLE "20:cjc123_3618"
    INDEX 01 01:22:44
  TRACK 36 AUDIO
    TITLE "0:"
    INDEX 01 01:26:64
  TRACK 37 AUDIO
    TITLE "21:cjc123_3619"
    INDEX 01 01:27:18
  TRACK 38 AUDIO
    TITLE "0:"
    INDEX 01 01:31:26
  TRACK 39 AUDIO
    TITLE "19:cjc123_3620"
    INDEX 01 01:32:06
  TRACK 40 AUDIO
    TITLE "0:"
    INDEX 01 01:37:34
  TRACK 41 AUDIO
    TITLE "20:cjc123_3621"
    INDEX 01 01:37:62
  TRACK 42 AUDIO
    TITLE "0:"
    INDEX 01 01:41:73
  TRACK 43 AUDIO
    TITLE "21:cjc123_3622"
    INDEX 01 01:42:30
  TRACK 44 AUDIO
    TITLE "0:"
    INDEX 01 01:47:58
  TRACK 45 AUDIO
    TITLE "19:cjc123_3623"
    INDEX 01 01:48:36
  TRACK 46 AUDIO
    TITLE "0:"
    INDEX 01 01:52:20
  TRACK 47 AUDIO
    TITLE "20:cjc123_3624"
    INDEX 01 01:52:53
  TRACK 48 AUDIO
    TITLE "0:"
    INDEX 01 01:56:20
  TRACK 49 AUDIO
    TITLE "21:cjc123_3625"
    INDEX 01 01:56:53
  TRACK 50 AUDIO
    TITLE "0:"
    INDEX 01 02:00:37
  TRACK 51 AUDIO
    TITLE "19:cjc123_3626"
    INDEX 01 02:01:17
  TRACK 52 AUDIO
    TITLE "0:"
    INDEX 01 02:05:25
  TRACK 53 AUDIO
    TITLE "20:cjc123_3627"
    INDEX 01 02:06:01
  TRACK 54 AUDIO
    TITLE "0:"
    INDEX 01 02:11:31
  TRACK 55 AUDIO
    TITLE "21:cjc123_3628"
    INDEX 01 02:11:61
  TRACK 56 AUDIO
    TITLE "0:"
    INDEX 01 02:15:70
  TRACK 57 AUDIO
    TITLE "19:cjc123_3629"
    INDEX 01 02:16:52
  TRACK 58 AUDIO
    TITLE "0:"
    INDEX 01 02:20:61
  TRACK 59 AUDIO
    TITLE "20:cjc123_3630"
    INDEX 01 02:21:20
  TRACK 60 AUDIO
    TITLE "0:"
    INDEX 01 02:25:12
  TRACK 61 AUDIO
    TITLE "21:cjc123_3631"
    INDEX 01 02:25:43
  TRACK 62 AUDIO
    TITLE "0:"
    INDEX 01 02:29:51
  TRACK 63 AUDIO
    TITLE "19:cjc123_3632"
    INDEX 01 02:30:40
  TRACK 64 AUDIO
    TITLE "0:"
    INDEX 01 02:34:62
  TRACK 65 AUDIO
    TITLE "20:cjc123_3633"
    INDEX 01 02:35:20
  TRACK 66 AUDIO
    TITLE "0:"
    INDEX 01 02:39:53
  TRACK 67 AUDIO
    TITLE "21:cjc123_3634"
    INDEX 01 02:40:11
  TRACK 68 AUDIO
    TITLE "0:"
    INDEX 01 02:44:35
  TRACK 69 AUDIO
    TITLE "19:cjc123_3635"
    INDEX 01 02:45:10
  TRACK 70 AUDIO
    TITLE "0:"
    INDEX 01 02:50:57
  TRACK 71 AUDIO
    TITLE "20:cjc123_3636"
    INDEX 01 02:51:11
  TRACK 72 AUDIO
    TITLE "0:"
    INDEX 01 02:57:10
  TRACK 73 AUDIO
    TITLE "21:cjc123_3637"
    INDEX 01 02:57:39
  TRACK 74 AUDIO
    TITLE "0:"
    INDEX 01 03:03:14
  TRACK 75 AUDIO
    TITLE "19:cjc123_3638"
    INDEX 01 03:03:61
  TRACK 76 AUDIO
    TITLE "0:"
    INDEX 01 03:08:33
  TRACK 77 AUDIO
    TITLE "20:cjc123_3639"
    INDEX 01 03:08:62
  TRACK 78 AUDIO
    TITLE "0:"
    INDEX 01 03:13:44
  TRACK 79 AUDIO
    TITLE "21:cjc123_3640"
    INDEX 01 03:13:73
  TRACK 80 AUDIO
    TITLE "0:"
    INDEX 01 03:18:45
  TRACK 81 AUDIO
    TITLE "19:cjc123_3641"
    INDEX 01 03:19:33
  TRACK 82 AUDIO
    TITLE "0:"
    INDEX 01 03:22:55
  TRACK 83 AUDIO
    TITLE "20:cjc123_3642"
    INDEX 01 03:23:23
  TRACK 84 AUDIO
    TITLE "0:"
    INDEX 01 03:27:25
  TRACK 85 AUDIO
    TITLE "21:cjc123_3643"
    INDEX 01 03:27:56
  TRACK 86 AUDIO
    TITLE "0:"
    INDEX 01 03:31:03
  TRACK 87 AUDIO
    TITLE "19:cjc123_3644"
    INDEX 01 03:31:62
  TRACK 88 AUDIO
    TITLE "0:"
    INDEX 01 03:35:61
  TRACK 89 AUDIO
    TITLE "20:cjc123_3645"
    INDEX 01 03:36:18
  TRACK 90 AUDIO
    TITLE "0:"
    INDEX 01 03:40:64
  TRACK 91 AUDIO
    TITLE "21:cjc123_3646"
    INDEX 01 03:41:17
  TRACK 92 AUDIO
    TITLE "0:"
    INDEX 01 03:45:17
